<svg width="24" height="17" viewBox="0 0 24 17" fill="none" xmlns="http://www.w3.org/2000/svg">
<path d="M20.2534 7.55494C19.7671 7.55494 19.3669 7.41618 19.1689 7.33266C19.0328 7.27338 18.9709 7.11711 19.0261 6.98105C19.0854 6.84902 19.2417 6.78301 19.3777 6.83825C19.6391 6.95276 20.3207 7.1683 21.0199 6.85845C21.2153 6.76819 21.42 6.63617 21.5979 6.46508C21.09 6.40311 20.6239 6.17678 20.4083 5.75916C20.2062 5.37252 20.2278 4.89697 20.4676 4.54132C20.8044 4.05768 21.486 3.8839 22.0047 4.14794C22.5961 4.45375 22.6406 5.16371 22.6338 5.45605C22.6298 5.58538 22.6163 5.70662 22.588 5.82517C23.1094 5.61636 23.395 5.16775 23.496 4.9805C23.5661 4.84847 23.7331 4.79997 23.8571 4.86868C23.9891 4.93873 24.0376 5.10174 23.9689 5.22972C23.8301 5.48703 23.426 6.11616 22.6581 6.36674C22.5463 6.40176 22.4291 6.43275 22.3065 6.45026C22.0384 6.85307 21.6356 7.16696 21.2355 7.34344C20.8946 7.49701 20.5578 7.55225 20.2547 7.55225L20.2534 7.55494ZM21.4807 4.56018C21.2584 4.56018 21.032 4.66391 20.9068 4.84174C20.7613 5.06133 20.7882 5.34288 20.8785 5.51263C21.0347 5.8117 21.4564 5.95046 21.8902 5.95046H21.9778C22.0505 5.79419 22.0963 5.6231 22.0963 5.44662C22.1004 5.29304 22.0896 4.79324 21.7595 4.62215C21.672 4.58039 21.579 4.56018 21.4807 4.56018Z" fill="#FAE24D"/>
<path d="M20.3005 8.04936C20.3005 10.6844 18.8052 13.0352 16.5258 14.5306L15.9195 16.8814H13.2481L12.9638 15.9195C12.3226 16.0623 11.6463 16.1337 10.9336 16.1337C10.1496 16.1337 9.40191 16.0623 8.69061 15.8845L8.36998 16.8814H5.69854L5.05728 14.3177C3.77478 13.4636 2.77787 12.2876 2.20801 10.935C1.63816 10.9 1.06831 10.8286 0.534827 10.7922C0.357001 9.47466 0.179174 8.15713 0 6.87462C0.2142 6.83959 0.747681 6.76819 1.28251 6.41119C1.67454 6.12559 1.92376 5.76994 2.03019 5.55574C2.38584 4.63023 2.92067 3.77478 3.59695 3.0271C3.13352 2.38584 2.63507 1.78096 2.17164 1.13971C2.7415 0.961881 3.8812 0.676281 5.19874 0.996908C5.48299 1.03193 5.76859 1.13971 5.98279 1.21111H6.01782C7.44313 0.427054 9.11766 0 10.9336 0C16.0974 0 20.3005 3.59695 20.3005 8.04936Z" fill="#FAE24D"/>
<path d="M13.1255 10.5497C12.945 10.8622 12.6769 11.1196 12.3253 11.3216C11.971 11.5237 11.5533 11.6423 11.0738 11.6759V12.5071H10.4163V11.6652C9.73062 11.6032 9.17828 11.3944 8.76066 11.0428C8.34304 10.6885 8.12749 10.2116 8.11402 9.60668H9.65518C9.69694 10.1011 9.95021 10.4002 10.4163 10.5039V8.53837C9.92192 8.41309 9.52585 8.29184 9.22274 8.16655C8.91963 8.04531 8.65962 7.84593 8.44003 7.57245C8.22044 7.29898 8.11267 6.92177 8.11267 6.44891C8.11267 5.85481 8.32418 5.36713 8.75662 4.98857C9.18502 4.61271 9.73736 4.39717 10.415 4.34193V3.51073H11.0724V4.34193C11.7339 4.39717 12.2579 4.5952 12.6513 4.94008C13.0474 5.28091 13.267 5.75377 13.3154 6.35865H11.7649C11.7446 6.16061 11.6706 5.98683 11.5533 5.83729C11.4321 5.6918 11.2745 5.58672 11.0738 5.52475V7.46872C11.5884 7.60074 11.9952 7.72603 12.2943 7.84458C12.5934 7.96583 12.8507 8.16117 13.0703 8.43195C13.2899 8.70273 13.4003 9.0759 13.4003 9.54875C13.4003 9.90306 13.3101 10.2372 13.1255 10.551V10.5497ZM9.82089 6.9285C9.95695 7.06726 10.155 7.18177 10.415 7.27338V5.49242C10.1685 5.52744 9.97312 5.62175 9.83032 5.77128C9.68482 5.92486 9.61477 6.12559 9.61477 6.3802C9.61477 6.60653 9.68078 6.79109 9.81954 6.92985L9.82089 6.9285ZM11.6854 10.2048C11.8349 10.0418 11.9077 9.83974 11.9077 9.60668C11.9077 9.37362 11.8349 9.19984 11.6921 9.06377C11.5466 8.92501 11.3405 8.8132 11.0724 8.72294V10.5241C11.3338 10.4756 11.5385 10.3678 11.684 10.2035L11.6854 10.2048Z" fill="#18181E"/>
</svg>
