<svg width="50" height="50" viewBox="0 0 50 50" fill="none" xmlns="http://www.w3.org/2000/svg">
<g clip-path="url(#clip0_3323_189237)">
<path d="M49.2464 31.0475C45.9075 44.4405 32.3426 52.5912 18.948 49.2514C5.55902 45.9125 -2.59168 32.3467 0.748713 18.9548C4.08618 5.56035 17.6511 -2.59097 31.0415 0.747963C44.4351 4.08689 52.5853 17.6541 49.246 31.0477L49.2463 31.0475H49.2464Z" fill="#F7931A"/>
<path d="M36.0207 21.438C36.5183 18.111 33.9854 16.3226 30.5218 15.1296L31.6454 10.623L28.9021 9.93939L27.8083 14.3274C27.0871 14.1475 26.3465 13.978 25.6103 13.81L26.7121 9.39305L23.9704 8.70947L22.8462 13.2147C22.2494 13.0788 21.6632 12.9445 21.0945 12.803L21.0977 12.7888L17.3146 11.8441L16.5848 14.7741C16.5848 14.7741 18.6201 15.2407 18.5772 15.2694C19.6881 15.5467 19.889 16.2821 19.8557 16.8649L18.5758 21.9991C18.6523 22.0185 18.7515 22.0466 18.861 22.0906C18.7695 22.0679 18.6721 22.0431 18.571 22.0189L16.777 29.2111C16.6413 29.5486 16.2967 30.0551 15.52 29.8628C15.5475 29.9026 13.5261 29.3652 13.5261 29.3652L12.1641 32.5054L15.7341 33.3954C16.3982 33.5619 17.049 33.7362 17.69 33.9L16.5547 38.4584L19.2949 39.142L20.4191 34.632C21.1677 34.8352 21.8942 35.0227 22.6054 35.1994L21.4849 39.6881L24.2284 40.3716L25.3635 35.8218C30.0415 36.7072 33.5589 36.3502 35.0395 32.119C36.2325 28.7124 34.9801 26.7474 32.519 25.4661C34.3115 25.0527 35.6617 23.8737 36.0217 21.4383L36.0208 21.4377L36.0207 21.438ZM29.7528 30.2271C28.905 33.6338 23.1693 31.7923 21.3097 31.3305L22.8162 25.2915C24.6756 25.7557 30.6389 26.6744 29.753 30.2271H29.7528ZM30.6013 21.3886C29.8279 24.4873 25.054 22.913 23.5054 22.527L24.8712 17.05C26.4198 17.436 31.4069 18.1565 30.6015 21.3886H30.6013Z" fill="white"/>
</g>
<defs>
<clipPath id="clip0_3323_189237">
<rect width="49.9944" height="50" fill="white"/>
</clipPath>
</defs>
</svg>
