<svg width="50" height="50" viewBox="0 0 50 50" fill="none" xmlns="http://www.w3.org/2000/svg">
<rect width="50" height="50" rx="25" fill="#EDEFF0"/>
<g clip-path="url(#clip0_3323_189192)">
<path d="M24.9935 10.3433L24.7969 11.0113V30.3939L24.9935 30.5901L33.9906 25.2719L24.9935 10.3433Z" fill="#343434"/>
<path d="M24.9953 10.3433L15.998 25.2719L24.9953 30.5901V21.1823V10.3433Z" fill="#8C8C8C"/>
<path d="M24.9937 32.2935L24.8828 32.4287V39.333L24.9937 39.6566L33.9962 26.978L24.9937 32.2935Z" fill="#3C3C3B"/>
<path d="M24.9953 39.6566V32.2935L15.998 26.978L24.9953 39.6566Z" fill="#8C8C8C"/>
<path d="M24.9941 30.5899L33.9912 25.2717L24.9941 21.1821V30.5899Z" fill="#141414"/>
<path d="M15.998 25.2717L24.9953 30.5899V21.1821L15.998 25.2717Z" fill="#393939"/>
</g>
<defs>
<clipPath id="clip0_3323_189192">
<rect width="17.9998" height="29.3136" fill="white" transform="translate(16 10.3433)"/>
</clipPath>
</defs>
</svg>
