<svg width="50" height="50" viewBox="0 0 50 50" fill="none" xmlns="http://www.w3.org/2000/svg">
<rect width="50" height="50" rx="25" fill="#C2EFB3" fill-opacity="0.08"/>
<rect x="2" y="2" width="46" height="46" rx="23" stroke="#C2EFB3" stroke-opacity="0.08" stroke-width="4"/>
<path d="M19.8984 24.3828H18.1406V22.0391H20.4111C21.583 18.9629 24.5859 16.7656 28.1016 16.7656H29.8594V19.1094H28.1016C25.9043 19.1094 24.0366 20.3179 23.0112 22.0391H28.6875V24.3828H22.2422C22.2422 24.6025 22.2422 24.7856 22.2422 24.9688C22.2422 25.1885 22.2422 25.3716 22.2422 25.5547H28.6875V27.8984H23.0112C24.0366 29.6562 25.9043 30.8281 28.1016 30.8281H29.8594V33.1719H28.1016C24.5859 33.1719 21.583 31.0112 20.4111 27.8984H18.1406V25.5547H19.8984C19.8984 25.3716 19.8984 25.1885 19.8984 24.9688C19.8984 24.7856 19.8984 24.6025 19.8984 24.3828Z" fill="#C2EFB3"/>
</svg>
